<svg version="1.1" viewBox="0.0 0.0 181.83202099737534 100.0" fill="none" stroke="none" stroke-linecap="square" stroke-miterlimit="10" xmlns:xlink="http://www.w3.org/1999/xlink" xmlns="http://www.w3.org/2000/svg"><clipPath id="p.0"><path d="m0 0l181.83202 0l0 100.0l-181.83202 0l0 -100.0z" clip-rule="nonzero"/></clipPath><g clip-path="url(#p.0)"><path fill="#000000" fill-opacity="0.0" d="m0 0l181.83202 0l0 100.0l-181.83202 0z" fill-rule="evenodd"/><path fill="#e69138" d="m24.54593 46.015747l0 0c0 -15.246536 11.450232 -27.606298 25.574804 -27.606298l0 0c6.78286 0 13.28791 2.908512 18.084114 8.085697c4.7962112 5.177187 7.490692 12.198957 7.490692 19.520601l0 0c0 15.24654 -11.450233 27.6063 -25.574806 27.6063l0 0c-14.124573 0 -25.574804 -12.35976 -25.574804 -27.6063z" fill-rule="evenodd"/><path fill="#000000" fill-opacity="0.0" d="m82.28871 21.984251l183.05513 0l0 48.06299l-183.05513 0z" fill-rule="evenodd"/><path fill="#ffffff" d="m93.85121 61.704254l0 -22.90625l3.03125 0l0 9.40625l11.90625 0l0 -9.40625l3.03125 0l0 22.90625l-3.03125 0l0 -10.796875l-11.90625 0l0 10.796875l-3.03125 0zm28.84375 0l0 -20.203125l-7.546875 0l0 -2.703125l18.15625 0l0 2.703125l-7.578125 0l0 20.203125l-3.03125 0zm13.625 0l0 -22.90625l4.5625 0l5.421875 16.21875q0.75 2.265625 1.09375 3.390625q0.390625 -1.25 1.21875 -3.671875l5.484375 -15.9375l4.078125 0l0 22.90625l-2.921875 0l0 -19.171875l-6.65625 19.171875l-2.734375 0l-6.625 -19.5l0 19.5l-2.921875 0zm26.625 0l0 -22.90625l3.03125 0l0 20.203125l11.28125 0l0 2.703125l-14.3125 0z" fill-rule="nonzero"/></g></svg>